# xmcd CD database file
#
# Track frame offsets:
#	150
#	681
#	13700
#	27947
#	36169
#	47134
#	58529
#	69433
#	79614
#	92937
#	108169
#	119526
#	129979
#	137224
#	150769
#	162378
#	175270
#	186311
#	195506
#	204276
#	213327
#	223240
#	236526
#	249226
#	259835
#	270908
#	278090
#	288215
#	296793
#	308075
#	317227
#	328541
#	338996
#	351183
#
# Disc length: 4794 seconds
#
# Revision: 2
# Processed by: cddbd v1.5.2PL0 Copyright (c) Steve Scherf et al.
# Submitted via: CDex 1.70beta2
#
DISCID=ee12b822
DTITLE=99 x Jazz - Musiker
DYEAR=2007
DGENRE=Jazz
TTITLE0=Einleitung
TTITLE1=Jelly Roll Morton
TTITLE2=Louis Armstrong
TTITLE3=Bix Beiderbecke
TTITLE4=Coleman Hawkins
TTITLE5=Duke Ellington
TTITLE6=Benny Goodman
TTITLE7=Count Basie
TTITLE8=Lester Young
TTITLE9=Billie Holiday
TTITLE10=Ella Fitzgerald
TTITLE11=Charlie Parker
TTITLE12=Dizzy Gillespie
TTITLE13=Thelonious Monk
TTITLE14=Miles Davis
TTITLE15=Stan Getz
TTITLE16=Chet Baker
TTITLE17=Modern Jazz Quartett
TTITLE18=Dave Brubeck
TTITLE19=Sonny Rollins
TTITLE20=Charles Mingus
TTITLE21=Ornette Coleman
TTITLE22=John Coltrane
TTITLE23=Cecil Taylor
TTITLE24=Sun Ra
TTITLE25=Herbie Hancock
TTITLE26=Weather Report
TTITLE27=John McLaughlin
TTITLE28=Keith Jarret
TTITLE29=Pat Metheny
TTITLE30=Jan Garbarek
TTITLE31=Wynton Marsalis
TTITLE32=Diana Krall
TTITLE33=Till Broenner
EXTD=YEAR: 2007
EXTT0=
EXTT1=
EXTT2=
EXTT3=
EXTT4=
EXTT5=
EXTT6=
EXTT7=
EXTT8=
EXTT9=
EXTT10=
EXTT11=
EXTT12=
EXTT13=
EXTT14=
EXTT15=
EXTT16=
EXTT17=
EXTT18=
EXTT19=
EXTT20=
EXTT21=
EXTT22=
EXTT23=
EXTT24=
EXTT25=
EXTT26=
EXTT27=
EXTT28=
EXTT29=
EXTT30=
EXTT31=
EXTT32=
EXTT33=
PLAYORDER=
